<svg width="1440" height="405" viewBox="0 0 1440 405" fill="none" xmlns="http://www.w3.org/2000/svg">
<path opacity="0.15" d="M1374.19 166.88C1407.7 203.97 1434.88 268.451 1384.8 313.973C1379.63 318.666 1331.18 361.248 1258.3 355.96C1169.54 349.52 1151.34 279.812 1053.38 261.716C947.298 242.119 885.037 308.425 833.231 288.056C771.971 263.97 764.451 134.071 875.331 78.3957C1008.91 11.3255 1284.08 67.1512 1374.19 166.88Z" fill="#EBC136"/>
<path opacity="0.15" d="M539.245 358.639C570.307 339.569 604.155 301.148 583.134 262.285C580.966 258.278 560.262 221.654 511.679 212.834C452.505 202.09 423.162 245.52 355.092 240.996C281.375 236.096 257.688 181.301 218.971 186.114C173.189 191.806 135.627 277.21 193.513 333.149C263.248 400.538 455.723 409.917 539.245 358.639Z" fill="#EBC136"/>
<path opacity="0.15" d="M721.575 250.89C706.187 229.799 690.464 189.221 703.947 151.859C705.337 148.007 718.519 112.857 744.877 107.297C776.983 100.526 790.013 145.799 826.48 145.823C865.973 145.849 881.817 92.7743 902.122 100.155C926.131 108.883 941.044 196.57 906.944 248.508C865.865 311.075 762.953 307.602 721.575 250.89Z" fill="#EBC136"/>
<path opacity="0.15" d="M709.467 203.802C726.284 193.124 744.622 171.633 733.276 149.936C732.107 147.699 720.931 127.254 694.654 122.363C662.649 116.407 646.745 140.693 609.923 138.218C570.047 135.538 557.27 104.943 536.321 107.661C511.55 110.876 491.171 158.62 522.448 189.828C560.128 227.423 664.247 232.514 709.467 203.802Z" fill="#EBC136"/>
<path opacity="0.15" d="M1433.62 177.365C1451.76 161.046 1471.7 128.494 1459.95 96.1918C1458.74 92.8615 1447.14 62.4303 1419.17 55.5947C1385.09 47.2688 1367.7 83.9645 1328.42 80.9464C1285.89 77.678 1272.75 32.0665 1250.34 36.5345C1223.83 41.8178 1201.28 113.751 1234.15 159.934C1273.76 215.569 1384.86 221.244 1433.62 177.365Z" fill="#8047F8"/>
<path opacity="0.15" d="M1445.61 306.852C1459.71 317.804 1475.15 339.725 1465.84 361.622C1464.88 363.88 1455.7 384.511 1433.82 389.261C1407.16 395.047 1393.73 370.312 1363.03 372.533C1329.79 374.938 1319.35 405.841 1301.86 402.922C1281.17 399.471 1263.84 350.932 1289.71 319.552C1320.88 281.749 1407.69 277.404 1445.61 306.852Z" fill="#8047F8"/>
<path opacity="0.15" d="M246.937 65.8915C259.507 87.6161 271.932 129.056 259.695 166.491C258.433 170.351 246.5 205.558 224.055 210.502C196.717 216.524 186.675 170.405 155.792 169.442C122.347 168.4 107.765 221.665 90.7319 213.678C70.5903 204.234 59.8829 115.175 89.8998 63.5304C126.06 1.31518 213.139 7.47619 246.937 65.8915Z" fill="#EBC136"/>
<path opacity="0.15" d="M888.507 361.947C862.621 342.727 837.462 304.18 863.926 265.528C866.654 261.543 892.434 225.123 939.6 216.62C997.048 206.262 1017.11 249.78 1081.84 245.683C1151.94 241.246 1183.66 186.712 1219.2 191.753C1261.23 197.713 1281.76 283.166 1217.71 338.631C1140.55 405.449 958.112 413.627 888.507 361.947Z" fill="#EBC136"/>
<path opacity="0.15" d="M814.922 328.538C836.564 309.513 859.249 272.904 841.967 239.187C840.185 235.71 823.248 203.989 787.43 198.962C743.805 192.84 724.654 233.687 674.868 233.695C620.953 233.704 600.92 185.808 572.979 192.46C539.939 200.327 516.942 279.444 561.931 326.321C616.129 382.792 756.728 379.695 814.922 328.538Z" fill="#8047F8"/>
<path opacity="0.15" d="M862.472 70.0038C903.019 80.6655 946.078 100.465 915.336 117.257C912.167 118.989 881.993 134.762 816.11 136.009C735.863 137.528 699.181 115.67 607.369 113.784C507.942 111.742 472.601 135.767 420.852 131.269C359.659 125.95 314.602 84.1453 396 61.5908C494.058 34.42 753.443 41.3353 862.472 70.0038Z" fill="#8047F8"/>
<path opacity="0.15" d="M195.139 311.866C214.225 289.714 234.35 247.381 219.454 208.978C217.918 205.018 203.31 168.899 171.98 163.685C133.82 157.335 116.761 204.475 73.1631 205.25C25.9491 206.089 8.74418 151.467 -15.771 159.526C-44.7596 169.056 -65.4579 260.145 -26.3916 313.214C20.6708 377.144 143.816 371.431 195.139 311.866Z" fill="#8047F8"/>
</svg>
