<svg width="455" height="268" viewBox="0 0 455 268" fill="none" xmlns="http://www.w3.org/2000/svg">
<path d="M70.7398 265.645L70.0063 265.204C70.2123 264.862 90.6625 230.778 93.8464 222.286L94.6479 222.587C91.4359 231.152 71.583 264.241 70.7398 265.645Z" fill="#8B9D36"/>
<path d="M87.3159 204.414C88.1815 206.555 88.8433 208.774 89.2926 211.04C89.752 213.259 90.0893 215.502 90.3029 217.758C90.5223 220.013 90.6152 222.28 90.5812 224.546C90.5683 226.856 90.3346 229.16 89.8834 231.426C89.0137 229.286 88.3502 227.067 87.9021 224.8C87.442 222.581 87.1062 220.338 86.8964 218.082C86.6811 215.826 86.5898 213.56 86.6228 211.294C86.637 208.984 86.8691 206.68 87.3159 204.414Z" fill="#8B9D36"/>
<path d="M79.7689 214.734C80.8229 216.729 81.6818 218.822 82.3339 220.982C82.9913 223.093 83.5294 225.24 83.9454 227.412C84.3669 229.583 84.6639 231.777 84.8349 233.982C85.0302 236.23 85.0056 238.492 84.7614 240.736C83.7035 238.742 82.8429 236.65 82.1918 234.489C81.534 232.378 80.9975 230.231 80.5849 228.058C80.167 225.886 79.8716 223.692 79.7 221.488C79.5059 219.239 79.5289 216.978 79.7689 214.734Z" fill="#8B9D36"/>
<path d="M75.6102 226.75C76.5383 228.604 77.2701 230.55 77.7937 232.557C78.3222 234.511 78.7302 236.496 79.0154 238.501C79.3059 240.505 79.471 242.525 79.5096 244.549C79.5697 246.622 79.41 248.696 79.0333 250.736C78.1011 248.883 77.3676 246.937 76.8452 244.929C76.3159 242.975 75.9094 240.989 75.6281 238.984C75.3412 236.98 75.1777 234.96 75.1385 232.936C75.0795 230.863 75.2376 228.789 75.6102 226.75Z" fill="#8B9D36"/>
<path d="M70.3734 238.743C71.3053 240.296 72.0485 241.955 72.5874 243.685C73.1266 245.355 73.5466 247.062 73.8442 248.792C74.1476 250.521 74.3256 252.269 74.3769 254.024C74.4503 255.835 74.3048 257.647 73.9437 259.423C73.0079 257.871 72.2629 256.212 71.7251 254.482C71.1852 252.812 70.7666 251.105 70.4724 249.374C70.1731 247.644 69.9966 245.896 69.9443 244.141C69.8722 242.331 70.0163 240.519 70.3734 238.743Z" fill="#8B9D36"/>
<path d="M65.7528 246.239C66.7035 247.586 67.4883 249.043 68.0901 250.578C68.6799 252.044 69.1709 253.548 69.5596 255.079C69.9447 256.599 70.241 258.141 70.447 259.695C70.5431 260.479 70.6313 261.258 70.6898 262.052C70.72 262.861 70.8063 263.668 70.948 264.465C70.7503 264.359 70.5604 264.239 70.3797 264.106L69.9185 263.644C69.6244 263.329 69.3547 262.991 69.1117 262.635C68.6433 261.948 68.2286 261.226 67.8712 260.476C67.177 259.017 66.6316 257.491 66.2434 255.923C65.8474 254.368 65.591 252.782 65.4771 251.182C65.3389 249.529 65.4317 247.866 65.7528 246.239Z" fill="#8B9D36"/>
<path d="M91.8037 227.735C93.3566 226.032 95.1038 224.517 97.0097 223.22C98.8459 221.944 100.769 220.798 102.764 219.789C104.756 218.774 106.818 217.901 108.933 217.177C111.106 216.407 113.363 215.897 115.656 215.659C114.107 217.366 112.36 218.883 110.453 220.179C108.617 221.455 106.693 222.6 104.696 223.605C102.701 224.616 100.639 225.487 98.5239 226.212C96.3511 226.981 94.0956 227.492 91.8037 227.735Z" fill="#8B9D36"/>
<path d="M86.6904 237.288C88.6763 235.663 90.8286 234.254 93.1114 233.084C95.3284 231.92 97.6155 230.896 99.9594 230.016C102.301 229.13 104.696 228.393 107.13 227.809C109.619 227.185 112.168 226.83 114.732 226.75C112.749 228.378 110.597 229.789 108.314 230.959C106.097 232.123 103.809 233.146 101.464 234.021C99.1205 234.902 96.7248 235.638 94.2905 236.222C91.8019 236.845 89.2543 237.202 86.6904 237.288Z" fill="#8B9D36"/>
<path d="M80.6709 247.906C82.439 246.336 84.381 244.975 86.4589 243.847C88.467 242.732 90.5483 241.753 92.6885 240.919C94.8261 240.079 97.0192 239.387 99.252 238.848C101.545 238.268 103.897 237.956 106.261 237.918C104.496 239.491 102.554 240.855 100.475 241.982C98.4673 243.098 96.3851 244.074 94.2432 244.904C92.1038 245.74 89.9103 246.431 87.6777 246.971C85.3854 247.549 83.0345 247.863 80.6709 247.906Z" fill="#8B9D36"/>
<path d="M75.9136 256.078C77.4538 254.744 79.163 253.618 80.9971 252.73C82.7518 251.857 84.5729 251.124 86.4434 250.54C88.312 249.949 90.2253 249.509 92.1645 249.226C94.1782 248.909 96.2253 248.86 98.2517 249.083C96.7141 250.422 95.0051 251.55 93.1698 252.437C91.4155 253.311 89.5934 254.041 87.7215 254.622C85.8516 255.208 83.9381 255.646 81.9991 255.929C79.9859 256.246 77.9398 256.296 75.9136 256.078Z" fill="#8B9D36"/>
<path d="M72.1582 263.412C73.8515 261.786 75.7265 260.361 77.7461 259.165C79.6958 257.985 81.7239 256.938 83.8161 256.033C85.9056 255.122 88.0559 254.358 90.2514 253.745C92.5056 253.089 94.8286 252.698 97.1733 252.581C95.4832 254.21 93.6087 255.637 91.5879 256.832C89.6386 258.014 87.6095 259.059 85.5154 259.959C83.4241 260.866 81.2733 261.629 79.0781 262.242C76.8241 262.897 74.5021 263.289 72.1582 263.412Z" fill="#8B9D36"/>
<path d="M93.4653 223.669C93.1529 221.387 93.2092 219.07 93.6321 216.806C94.0043 214.671 94.5901 212.579 95.3806 210.562C96.1637 208.542 97.1511 206.607 98.3275 204.787C99.5536 202.836 101.088 201.097 102.872 199.638C103.191 201.921 103.138 204.24 102.713 206.505C102.342 208.639 101.753 210.73 100.957 212.745C100.168 214.763 99.1781 216.697 98.0024 218.517C96.7758 220.466 95.2439 222.206 93.4653 223.669Z" fill="#8B9D36"/>
<path d="M67.5981 267.044L66.7422 267.031C66.7805 264.692 67.7955 209.56 78.8226 192.098L79.5458 192.556C68.6464 209.815 67.6075 266.474 67.5981 267.044Z" fill="#50661A"/>
<path d="M75.6411 199.973C75.9802 197.416 76.0662 194.83 75.8976 192.256C75.7554 189.747 75.477 187.248 75.0637 184.769C74.6642 182.301 74.1207 179.856 73.4814 177.432C72.843 174.992 72.0366 172.645 71.1751 170.144C70.9317 170.765 70.7469 171.408 70.6231 172.063C70.4852 172.707 70.3844 173.358 70.3215 174.013C70.1879 175.299 70.1299 176.591 70.1477 177.883C70.1854 180.426 70.4183 182.962 70.8442 185.469C71.2587 187.968 71.8451 190.436 72.599 192.854C73.3445 195.333 74.3649 197.721 75.6411 199.973Z" fill="#50661A"/>
<path d="M89.1955 165.061C87.3002 166.889 85.6749 168.978 84.3685 171.264C83.0961 173.433 82.0137 175.707 81.1334 178.062C80.2451 180.415 79.5656 182.841 79.1028 185.312C78.5853 187.895 78.4426 190.539 78.6791 193.163C80.58 191.339 82.2082 189.251 83.5137 186.963C84.7872 184.795 85.8673 182.519 86.7413 180.162C87.6235 177.807 88.3004 175.381 88.7644 172.909C89.2802 170.327 89.4254 167.684 89.1955 165.061Z" fill="#50661A"/>
<path d="M98.2827 179.112C96.034 180.919 93.9103 182.876 91.9261 184.97C89.9615 187.007 88.0868 189.089 86.2525 191.183L80.803 197.437C79.8888 198.462 78.965 199.471 77.989 200.427C77.0246 201.44 75.9014 202.288 74.6636 202.939C75.4185 203.071 76.1922 203.052 76.9394 202.882C77.6931 202.731 78.4282 202.5 79.1321 202.192C80.5098 201.586 81.8189 200.835 83.0374 199.952C85.4023 198.221 87.5608 196.224 89.4706 194C91.3702 191.822 93.0804 189.485 94.5825 187.016C96.1288 184.539 97.3712 181.886 98.2827 179.112Z" fill="#50661A"/>
<path d="M98.2832 193.163C95.5111 194.548 92.8668 196.174 90.381 198.024C87.9212 199.823 85.5548 201.747 83.2911 203.787C81.0225 205.822 78.8612 207.974 76.8158 210.233C74.7154 212.512 72.8228 214.974 71.1606 217.589C73.9355 216.21 76.5815 214.584 79.067 212.733C81.5274 210.935 83.8926 209.01 86.1531 206.966C88.4186 204.927 90.5784 202.774 92.6243 200.516C94.7234 198.236 96.6171 195.776 98.2832 193.163Z" fill="#50661A"/>
<path d="M97.3589 204.188C94.5662 205.488 91.8945 207.033 89.3752 208.805C86.8834 210.528 84.4817 212.377 82.1796 214.346C79.8729 216.309 77.6704 218.392 75.581 220.585C73.4361 222.797 71.4942 225.197 69.7788 227.756C72.5742 226.461 75.2476 224.917 77.7666 223.143C80.2588 221.422 82.6592 219.571 84.9581 217.598C87.2618 215.631 89.463 213.547 91.553 211.355C93.6967 209.142 95.6396 206.744 97.3589 204.188Z" fill="#50661A"/>
<path d="M96.7427 215.972C93.9636 217.017 91.2866 218.316 88.7457 219.852C86.2374 221.339 83.8104 222.959 81.4748 224.705C79.135 226.445 76.8914 228.31 74.7538 230.294C72.5581 232.293 70.5536 234.493 68.7661 236.865C71.5474 235.824 74.2257 234.527 76.7664 232.99C79.2751 231.503 81.7012 229.882 84.0339 228.132C86.3709 226.388 88.6132 224.521 90.7512 222.538C92.9457 220.538 94.9513 218.34 96.7427 215.972Z" fill="#50661A"/>
<path d="M97.3586 224.521C94.4511 225.691 91.6514 227.113 88.9914 228.77C86.361 230.379 83.8133 232.12 81.3583 233.986C78.8988 235.846 76.5364 237.831 74.2805 239.934C71.9686 242.051 69.8482 244.368 67.9443 246.858C70.8541 245.693 73.6552 244.272 76.3149 242.614C78.9458 241.005 81.4924 239.263 83.9446 237.393C86.4013 235.529 88.7623 233.543 91.0187 231.441C93.3294 229.323 95.4508 227.008 97.3586 224.521Z" fill="#50661A"/>
<path d="M99.5151 232.532C96.4879 233.94 93.5651 235.562 90.7689 237.386C87.9921 239.164 85.3056 241.044 82.6863 243.005C80.0595 244.955 77.5054 246.988 74.9964 249.089C72.4615 251.172 70.067 253.341 67.4443 255.49C69.1284 255.213 70.7728 254.733 72.3416 254.06C73.8948 253.411 75.4128 252.68 76.8891 251.871C79.7929 250.246 82.5849 248.429 85.2462 246.432C87.8981 244.444 90.433 242.304 92.8384 240.024C95.2893 237.737 97.5243 235.229 99.5151 232.532Z" fill="#50661A"/>
<path d="M102.134 240.85C98.8624 242.122 95.6882 243.63 92.6364 245.364C89.6035 247.054 86.6599 248.868 83.7841 250.778C80.9078 252.687 78.1009 254.695 75.3634 256.801C73.9951 257.857 72.6398 258.932 71.2976 260.025C69.9993 261.177 68.62 262.233 67.1704 263.186C68.0794 263.187 68.9818 263.032 69.8386 262.728C70.6984 262.473 71.5332 262.163 72.3589 261.841C74.0055 261.187 75.5965 260.44 77.1571 259.647C80.2548 258.052 83.2584 256.279 86.1531 254.339C89.0473 252.414 91.8421 250.342 94.5265 248.133C97.2591 245.92 99.8035 243.484 102.134 240.85Z" fill="#50661A"/>
<path d="M72.9865 209.76C72.8475 206.98 72.4363 204.221 71.7589 201.522C71.1194 198.872 70.329 196.261 69.3916 193.701C68.4609 191.139 67.3822 188.633 66.161 186.196C64.9383 183.696 63.4707 181.323 61.7798 179.112C61.9138 181.892 62.323 184.652 63.0015 187.352C63.6406 190.002 64.433 192.612 65.3747 195.17C66.3097 197.731 67.3902 200.236 68.6107 202.674C69.8342 205.173 71.2998 207.546 72.9865 209.76Z" fill="#50661A"/>
<path d="M71.1602 219.379C70.6355 216.614 69.8438 213.907 68.7962 211.295C67.7927 208.726 66.6449 206.216 65.3584 203.777C64.0783 201.335 62.659 198.968 61.1076 196.688C59.5466 194.346 57.7596 192.163 55.7725 190.17C56.2924 192.936 57.0824 195.644 58.131 198.256C59.1342 200.825 60.2838 203.334 61.5742 205.771C62.8585 208.212 64.2794 210.578 65.8301 212.858C67.392 215.199 69.1771 217.382 71.1602 219.379Z" fill="#50661A"/>
<path d="M69.779 228.68C68.8789 225.874 67.7205 223.157 66.3186 220.565C64.9642 218.008 63.4734 215.526 61.8526 213.129C60.2375 210.729 58.4923 208.418 56.6249 206.208C54.7434 203.939 52.6533 201.852 50.3818 199.973C51.2773 202.782 52.4343 205.5 53.8376 208.092C55.1912 210.649 56.6837 213.131 58.3087 215.525C59.9274 217.923 61.6741 220.232 63.541 222.442C65.423 224.71 67.5112 226.799 69.779 228.68Z" fill="#50661A"/>
<path d="M68.7664 238.943C67.3549 235.91 65.698 232.997 63.8123 230.233C61.971 227.485 60.0063 224.838 57.9182 222.291C55.837 219.74 53.6353 217.286 51.3129 214.931C48.9813 212.531 46.4546 210.329 43.7588 208.347C45.1648 211.384 46.8203 214.298 48.7082 217.061C50.5495 219.809 52.5156 222.455 54.6066 224.999C56.6927 227.547 58.896 229.999 61.2164 232.355C63.5493 234.753 66.0744 236.957 68.7664 238.943Z" fill="#50661A"/>
<path d="M67.9444 249.585C66.2139 246.701 64.252 243.963 62.0779 241.397C59.9495 238.842 57.7087 236.4 55.3556 234.072C53.0091 231.737 50.5528 229.512 47.9866 227.398C45.4067 225.24 42.6531 223.299 39.7539 221.594C41.4793 224.482 43.4401 227.221 45.6163 229.786C47.7446 232.341 49.9867 234.781 52.3423 237.107C54.6933 239.438 57.1511 241.661 59.7155 243.777C62.2965 245.933 65.0486 247.875 67.9444 249.585Z" fill="#50661A"/>
<path d="M67.4445 256.408C65.525 253.92 63.3924 251.604 61.0708 249.487C58.8035 247.385 56.4319 245.398 53.9649 243.534C51.5025 241.664 48.9459 239.922 46.3051 238.314C43.6355 236.656 40.8248 235.236 37.9058 234.072C39.8216 236.563 41.9533 238.881 44.2762 240.998C46.5429 243.101 48.9157 245.086 51.3854 246.946C53.8508 248.812 56.4086 250.553 59.0489 252.161C61.7188 253.818 64.528 255.239 67.4445 256.408Z" fill="#50661A"/>
<path d="M67.1705 262.108C64.8677 259.837 62.3767 257.766 59.7241 255.916C57.1203 254.064 54.4372 252.352 51.6749 250.778C48.9169 249.196 46.0817 247.749 43.1694 246.437C40.2306 245.086 37.1813 243.99 34.0552 243.161C36.3548 245.435 38.8452 247.508 41.499 249.358C44.1028 251.209 46.7867 252.92 49.5507 254.491C52.3117 256.067 55.1478 257.513 58.0591 258.826C60.9981 260.175 64.0461 261.273 67.1705 262.108Z" fill="#50661A"/>
<path d="M67.3831 265.805C64.6202 263.898 61.7066 262.22 58.6713 260.786C55.6822 259.343 52.6346 258.057 49.5374 256.906C46.4405 255.754 43.2895 254.748 40.0843 253.887C36.8482 252.993 33.5437 252.368 30.2046 252.018C32.9645 253.93 35.8777 255.61 38.9144 257.042C41.9039 258.485 44.9492 259.777 48.0504 260.917C51.1493 262.063 54.2984 263.075 57.5055 263.93C60.7417 264.822 64.0452 265.449 67.3831 265.805Z" fill="#50661A"/>
<path d="M65.8858 265.51C65.0426 264.106 45.1896 231.016 41.9785 222.452L42.78 222.151C45.9631 230.643 66.4133 264.726 66.6192 265.069L65.8858 265.51Z" fill="#5E7C24"/>
<path d="M49.2667 204.414C48.4011 206.555 47.7393 208.774 47.29 211.04C46.8306 213.259 46.4933 215.502 46.2797 217.758C46.0604 220.013 45.9675 222.28 46.0015 224.546C46.0144 226.856 46.248 229.16 46.6992 231.426C47.569 229.286 48.2324 227.067 48.6805 224.8C49.1406 222.581 49.4764 220.338 49.6862 218.082C49.9015 215.826 49.9928 213.56 49.9598 211.294C49.9456 208.984 49.7135 206.68 49.2667 204.414Z" fill="#5E7C24"/>
<path d="M56.8143 214.734C55.7603 216.729 54.9013 218.822 54.2493 220.982C53.5918 223.093 53.0538 225.24 52.6378 227.412C52.2163 229.583 51.9193 231.777 51.7482 233.982C51.553 236.23 51.5776 238.492 51.8218 240.736C52.8797 238.742 53.7403 236.65 54.3914 234.489C55.0492 232.378 55.5857 230.231 55.9983 228.058C56.4162 225.886 56.7116 223.692 56.8832 221.488C57.0773 219.239 57.0542 216.978 56.8143 214.734Z" fill="#5E7C24"/>
<path d="M60.9728 226.75C60.0447 228.604 59.3128 230.55 58.7893 232.557C58.2607 234.511 57.8527 236.496 57.5676 238.501C57.2771 240.505 57.112 242.525 57.0733 244.549C57.0133 246.622 57.173 248.696 57.5497 250.736C58.4819 248.883 59.2154 246.937 59.7378 244.929C60.2671 242.975 60.6736 240.989 60.9549 238.984C61.2418 236.98 61.4053 234.96 61.4445 232.936C61.5035 230.863 61.3454 228.789 60.9728 226.75Z" fill="#5E7C24"/>
<path d="M66.2095 238.743C65.2776 240.296 64.5344 241.955 63.9955 243.685C63.4563 245.355 63.0363 247.062 62.7387 248.792C62.4353 250.521 62.2573 252.269 62.2059 254.024C62.1326 255.835 62.2781 257.647 62.6392 259.423C63.575 257.871 64.32 256.212 64.8578 254.482C65.3977 252.812 65.8163 251.105 66.1104 249.374C66.4098 247.644 66.5863 245.896 66.6386 244.141C66.7107 242.331 66.5666 240.519 66.2095 238.743Z" fill="#5E7C24"/>
<path d="M70.8304 246.239C69.8797 247.586 69.095 249.043 68.4931 250.578C67.9033 252.044 67.4124 253.548 67.0237 255.079C66.6385 256.599 66.3422 258.141 66.1362 259.695C66.0401 260.479 65.952 261.258 65.8935 262.052C65.8632 262.861 65.7769 263.668 65.6353 264.465C65.8329 264.359 66.0228 264.239 66.2035 264.106L66.6648 263.644C66.9588 263.329 67.2285 262.991 67.4716 262.635C67.94 261.948 68.3547 261.226 68.7121 260.476C69.4063 259.017 69.9516 257.491 70.3399 255.923C70.7358 254.368 70.9923 252.782 71.1061 251.182C71.2443 249.529 71.1515 247.866 70.8304 246.239Z" fill="#5E7C24"/>
<path d="M44.7786 227.735C43.2257 226.032 41.4784 224.517 39.5726 223.22C37.7364 221.944 35.8137 220.798 33.8184 219.789C31.8261 218.774 29.7645 217.901 27.6489 217.177C25.476 216.407 23.2193 215.897 20.9263 215.659C22.4757 217.366 24.2223 218.883 26.1293 220.179C27.9652 221.455 29.889 222.6 31.8864 223.605C33.8808 224.616 35.9431 225.487 38.0584 226.212C40.2312 226.981 42.4867 227.492 44.7786 227.735Z" fill="#5E7C24"/>
<path d="M49.8928 237.288C47.907 235.663 45.7546 234.254 43.4718 233.084C41.2548 231.921 38.9678 230.896 36.6238 230.016C34.2824 229.13 31.8873 228.393 29.4528 227.809C26.9641 227.185 24.4156 226.83 21.8511 226.75C23.8341 228.378 25.9858 229.789 28.2696 230.959C30.4861 232.123 32.7741 233.146 35.1197 234.021C37.4628 234.902 39.8584 235.638 42.2927 236.222C44.7814 236.845 47.3289 237.202 49.8928 237.288Z" fill="#5E7C24"/>
<path d="M55.9122 247.906C54.1441 246.336 52.2021 244.975 50.1242 243.847C48.1161 242.732 46.0348 241.753 43.8946 240.919C41.757 240.079 39.564 239.387 37.3311 238.848C35.0386 238.268 32.6866 237.956 30.3223 237.918C32.0875 239.491 34.0291 240.855 36.1082 241.982C38.1158 243.098 40.198 244.074 42.3399 244.904C44.4793 245.74 46.6728 246.431 48.9055 246.971C51.1977 247.549 53.5486 247.863 55.9122 247.906Z" fill="#5E7C24"/>
<path d="M60.6692 256.078C59.129 254.744 57.4198 253.618 55.5856 252.73C53.8309 251.857 52.0098 251.124 50.1394 250.54C48.2708 249.949 46.3575 249.509 44.4182 249.226C42.4045 248.909 40.3575 248.86 38.3311 249.083C39.8687 250.422 41.5777 251.55 43.413 252.437C45.1673 253.311 46.9893 254.041 48.8613 254.622C50.7312 255.208 52.6447 255.646 54.5837 255.929C56.5969 256.246 58.6429 256.296 60.6692 256.078Z" fill="#5E7C24"/>
<path d="M64.4248 263.412C62.7315 261.786 60.8565 260.361 58.8369 259.165C56.8871 257.985 54.8591 256.938 52.7669 256.033C50.6774 255.122 48.5271 254.358 46.3316 253.745C44.0774 253.089 41.7544 252.698 39.4097 252.581C41.0998 254.21 42.9742 255.637 44.995 256.832C46.9444 258.014 48.9735 259.059 51.0676 259.959C53.1589 260.866 55.3097 261.629 57.5049 262.242C59.7589 262.897 62.0809 263.289 64.4248 263.412Z" fill="#5E7C24"/>
<path d="M43.1173 223.669C43.4298 221.387 43.3735 219.07 42.9506 216.806C42.5784 214.671 41.9926 212.579 41.2021 210.562C40.419 208.542 39.4316 206.607 38.2552 204.787C37.0291 202.836 35.4943 201.097 33.7107 199.638C33.3913 201.921 33.4449 204.24 33.8694 206.505C34.2409 208.639 34.8293 210.73 35.6255 212.745C36.4146 214.763 37.4045 216.697 38.5803 218.517C39.8069 220.466 41.3388 222.206 43.1173 223.669Z" fill="#5E7C24"/>
<path d="M176.471 64.3445C167.713 64.8659 158.953 65.2764 150.191 65.576C141.429 65.8998 132.665 66.1217 123.9 66.324C115.135 66.4936 106.37 66.6412 97.6018 66.6876C88.8346 66.7584 80.065 66.7166 71.293 66.5621C80.0506 66.0388 88.8107 65.6274 97.5732 65.328C106.335 65.0046 115.099 64.7827 123.864 64.5826C132.629 64.4151 141.395 64.2675 150.162 64.2215C158.93 64.1515 167.699 64.1925 176.471 64.3445Z" fill="#EBC136"/>
<path d="M105.936 90.6939C97.1777 91.2153 88.4176 91.6259 79.6552 91.9257C70.8933 92.2495 62.1292 92.4714 53.3647 92.6735C44.5996 92.843 35.834 92.9909 27.0662 93.037C18.299 93.1081 9.52932 93.0663 0.757324 92.9117C9.51501 92.3882 18.2751 91.9767 27.0376 91.6774C35.7995 91.354 44.5635 91.1322 53.3281 90.9322C62.0933 90.7648 70.8589 90.6169 79.6267 90.5712C88.394 90.501 97.1636 90.5419 105.936 90.6939Z" fill="#EBC136"/>
<path d="M136.083 120.183C127.325 120.704 118.565 121.115 109.803 121.414C101.041 121.738 92.2767 121.96 83.5122 122.162C74.7471 122.332 65.9814 122.479 57.2137 122.526C48.4464 122.597 39.6768 122.555 30.9048 122.4C39.6625 121.877 48.4226 121.465 57.185 121.166C65.947 120.843 74.711 120.621 83.4755 120.421C92.2408 120.253 101.006 120.105 109.774 120.06C118.541 119.99 127.311 120.03 136.083 120.183Z" fill="#EBC136"/>
<path d="M453.732 267.909H23.4601C23.2291 267.909 23.0075 267.817 22.8441 267.653C22.6807 267.49 22.5889 267.268 22.5889 267.037C22.5889 266.806 22.6807 266.585 22.8441 266.421C23.0075 266.258 23.2291 266.166 23.4601 266.166H453.732C453.963 266.166 454.184 266.258 454.348 266.421C454.511 266.585 454.603 266.806 454.603 267.037C454.603 267.268 454.511 267.49 454.348 267.653C454.184 267.817 453.963 267.909 453.732 267.909Z" fill="#8C8686"/>
<path d="M308.484 113.829C316.893 113.829 316.907 100.758 308.484 100.758C300.075 100.758 300.061 113.829 308.484 113.829Z" fill="#6F56A5"/>
<path d="M237.193 4.13761C239.838 3.71176 242.546 3.92062 245.094 4.74698C246.288 5.15914 250.657 6.66641 252.815 10.7727C253.635 12.3321 253.833 14.2148 254.231 17.9803C254.478 20.3322 255.399 22.0104 255.422 24.8813C255.395 27.2079 255.033 29.5183 254.348 31.7418C253.322 35.2214 254.019 37.1874 253.498 37.8407C251.399 40.4734 244.941 38.4769 244.873 41.8896C244.832 43.9968 248.464 53.0612 248.413 55.5299C248.293 61.2824 238.639 55.3457 232.82 46.8162C232.556 46.4291 228.609 44.1634 228.988 40.4338C229.191 38.4414 230.801 29.087 230.628 27.8833C230.004 23.5327 227.805 23.0202 226.03 17.7699C225.549 16.452 225.415 15.0328 225.64 13.6481C225.866 12.2635 226.443 10.9599 227.316 9.86237C229.835 6.85479 233.331 4.82846 237.193 4.13761Z" fill="#D19E8A"/>
<path d="M253.365 22.781C253.853 22.7769 254.245 22.2811 254.239 21.6737C254.234 21.0663 253.834 20.5773 253.346 20.5814C252.857 20.5856 252.466 21.0814 252.471 21.6888C252.476 22.2962 252.876 22.7852 253.365 22.781Z" fill="#0A0709"/>
<path d="M245.392 22.85C245.881 22.8458 246.272 22.35 246.267 21.7426C246.262 21.1352 245.862 20.6462 245.374 20.6504C244.885 20.6546 244.493 21.1504 244.499 21.7578C244.504 22.3652 244.904 22.8542 245.392 22.85Z" fill="#0A0709"/>
<path d="M249.134 19.7493C249.242 19.7483 249.347 19.7159 249.437 19.6562C250.216 19.1081 251.143 18.8084 252.095 18.7965C253.048 18.7845 253.982 19.0609 254.774 19.5894C254.893 19.6768 255.042 19.7134 255.188 19.6913C255.334 19.6691 255.466 19.59 255.554 19.4712C255.641 19.3524 255.678 19.2037 255.657 19.0575C255.635 18.9114 255.556 18.7798 255.438 18.6916C254.457 18.0381 253.303 17.6922 252.124 17.6982C250.945 17.7042 249.795 18.0617 248.82 18.7251C248.72 18.7916 248.644 18.8888 248.603 19.0022C248.562 19.1157 248.56 19.2392 248.595 19.3543C248.63 19.4695 248.702 19.5702 248.799 19.6414C248.896 19.7126 249.014 19.7504 249.134 19.7493Z" fill="#494752"/>
<path d="M240.87 19.8199C240.978 19.8189 241.083 19.7866 241.172 19.7269C241.954 19.1846 242.88 18.8884 243.831 18.8761C244.782 18.8639 245.715 19.1363 246.51 19.6582C246.569 19.7018 246.636 19.7335 246.707 19.7513C246.778 19.7691 246.852 19.7727 246.924 19.7619C246.997 19.7512 247.066 19.7263 247.129 19.6886C247.192 19.651 247.247 19.6013 247.29 19.5425C247.334 19.4837 247.366 19.4168 247.383 19.3458C247.401 19.2747 247.405 19.2009 247.394 19.1284C247.383 19.056 247.358 18.9863 247.321 18.9235C247.283 18.8607 247.233 18.8059 247.175 18.7623C246.193 18.1088 245.039 17.7629 243.86 17.7689C242.681 17.7748 241.531 18.1324 240.556 18.7957C240.456 18.8622 240.38 18.9595 240.339 19.0729C240.298 19.1863 240.295 19.3098 240.331 19.425C240.366 19.5402 240.438 19.6409 240.535 19.712C240.632 19.7832 240.75 19.821 240.87 19.8199Z" fill="#494752"/>
<path d="M248.376 19.9827C248.086 20.9121 248.131 21.9136 248.502 22.8136C248.824 23.7186 249.287 24.5668 249.874 25.3269L250.34 25.8485C250.397 25.9 250.443 25.9624 250.476 26.032C250.508 26.1016 250.526 26.1769 250.529 26.2536C250.495 26.6302 250.314 26.978 250.024 27.2215C249.313 27.7555 248.427 28.003 247.542 27.9149C248.002 28.0988 248.499 28.1701 248.992 28.1229C249.485 28.0757 249.96 27.9115 250.377 27.6438C250.607 27.4863 250.799 27.2803 250.941 27.0404C251.082 26.8005 251.17 26.5324 251.197 26.2551C251.199 25.9402 251.081 25.6363 250.867 25.4051L250.417 24.8781C249.866 24.1664 249.392 23.399 249.001 22.5885C248.575 21.7871 248.359 20.8903 248.376 19.9827Z" fill="#B5806D"/>
<path d="M233.889 20.4787C233.543 20.3788 233.174 20.4007 232.843 20.5409C232.512 20.6716 232.213 20.8693 231.962 21.1217C231.719 21.3694 231.52 21.6574 231.375 21.973C231.23 22.2867 231.149 22.6263 231.138 22.9718C231.384 22.7537 231.617 22.5209 231.835 22.2747C232.056 22.0543 232.244 21.8193 232.461 21.6191C232.666 21.4076 232.883 21.2073 233.11 21.0192C233.353 20.8165 233.614 20.6356 233.889 20.4787Z" fill="#B5806D"/>
<path d="M233.21 25.071C233.439 24.7705 233.6 24.4248 233.685 24.0569C233.77 23.689 233.775 23.3073 233.7 22.9371C233.637 22.5629 233.5 22.2049 233.297 21.8839C233.101 21.5624 232.831 21.2929 232.508 21.0981C232.711 21.7411 232.878 22.3952 233.006 23.0571C233.114 23.7238 233.182 24.3963 233.21 25.071Z" fill="#B5806D"/>
<path d="M238.654 29.1237C238.654 29.1237 237.135 22.8115 237.388 20.9985C237.74 18.4721 237.917 17.209 237.606 16.1848C237.108 14.5453 237.907 14.3245 238.922 12.5494C239.875 10.8834 242.881 12.1997 243.626 11.917C245.717 11.1235 245.632 10.2408 247.05 10.1404C248.503 10.0376 249.568 9.64413 250.515 10.5747C251.482 11.5245 253.262 14.056 253.692 13.6105C254.596 12.3851 255.145 10.9344 255.278 9.41752C255.276 7.92356 254.91 6.4526 254.212 5.13208C253.861 4.36876 252.554 1.52812 249.878 0.78963C248.337 0.364214 248.048 1.10733 244.724 1.33261C241.276 1.56637 241.162 0.795831 239.36 1.3248C237.365 1.91045 237.449 2.87018 234.048 4.76644C232.92 5.37513 231.76 5.9221 230.572 6.40491C226.297 8.25862 225.734 7.97288 224.755 8.93494C222.645 11.0091 223.023 14.5412 223.114 15.3944C223.371 17.7972 224.316 18.5119 226.391 22.3468C229.676 28.4199 229.049 30.989 230.242 31.8343C230.827 32.2489 233.875 30.0422 233.852 28.9678C233.821 27.5594 232.803 27.1236 231.59 25.098C230.744 23.6823 229.527 21.6498 230.202 19.7922C230.61 18.6693 231.078 18.9715 232.239 19.0692C233.814 19.2017 234.607 21.3877 235.251 22.9915C235.717 24.1522 235.924 25.4003 235.858 26.6491C235.715 29.4352 239.206 30.2278 238.654 29.1237Z" fill="#2E2C33"/>
<path d="M245.74 31.8173C245.74 31.8173 249.251 35.0363 252.337 31.761L245.74 31.8173Z" fill="#9D6D5C"/>
<path d="M246.523 48.1836C246.523 48.1836 252.692 66.0237 229.103 39.5224L218.854 48.0341C216.73 49.8284 215.265 52.2798 214.691 55.0004C214.189 58.86 213.687 62.7195 213.184 66.5792C211.275 81.2526 211.262 96.1108 213.145 110.788C213.653 114.746 214.161 118.704 214.668 122.662L258.739 128.714C256.26 120.226 254.796 111.474 254.378 102.64C253.882 92.0675 255.191 87.5689 254.691 78.7994C254.003 68.157 251.228 57.7541 246.523 48.1836Z" fill="#FFBA55"/>
<path d="M252.951 119.375C252.153 118.918 251.34 118.503 250.538 118.067L248.185 116.683C246.653 115.718 245.188 114.65 243.802 113.484C242.414 112.331 241.159 111.028 240.059 109.597C239.516 108.876 239.032 108.112 238.613 107.313C238.167 106.52 237.827 105.671 237.604 104.789C237.857 106.632 238.547 108.388 239.616 109.91C240.658 111.449 241.914 112.833 243.345 114.02C244.76 115.211 246.29 116.259 247.912 117.148L250.385 118.375C251.243 118.709 252.09 119.063 252.951 119.375Z" fill="#E6952A"/>
<path d="M240.632 37.4814C243.537 39.4865 249.103 39.3516 249.103 39.3516L249.121 39.4812C246.959 39.7629 244.911 39.9755 244.873 41.8894C244.975 42.9602 245.203 44.0153 245.551 45.0331C241.75 42.8914 240.632 37.4814 240.632 37.4814Z" fill="#B5806D"/>
<path d="M298.239 192.076L300.598 204.026L323.724 207.751L292.8 217.143L286.291 195.704L298.239 192.076Z" fill="#D19E8A"/>
<path d="M327.149 207.863L327.127 207.792C326.963 207.25 326.651 206.764 326.226 206.388C325.801 206.013 325.281 205.763 324.723 205.666L300.621 201.478C300.385 201.437 300.143 201.48 299.936 201.6C299.728 201.72 299.57 201.909 299.488 202.134L297.054 208.813C296.967 209.05 296.796 209.247 296.573 209.365C296.35 209.483 296.092 209.515 295.847 209.453L290.178 208.032C290.003 207.988 289.819 207.992 289.646 208.042C289.472 208.092 289.315 208.188 289.191 208.318C289.066 208.449 288.979 208.611 288.937 208.786C288.896 208.962 288.901 209.145 288.954 209.318L291.774 218.606C291.852 218.865 292.03 219.082 292.269 219.21C292.508 219.337 292.787 219.364 293.046 219.286L326.469 209.136C326.728 209.057 326.945 208.879 327.072 208.64C327.2 208.401 327.227 208.122 327.149 207.863Z" fill="#251D1B"/>
<path d="M213.826 113.969C213.826 113.969 206.784 145.187 220.242 144.627H271.407L285.191 200.264C285.191 200.264 290.49 202.426 295.091 201.463C298.251 200.801 300.974 197.786 302.867 196.244C302.867 196.244 292.797 116.48 273.748 114.058C249.986 111.037 213.826 113.969 213.826 113.969Z" fill="#808B49"/>
<path d="M271.407 144.627C272.587 143.146 273.64 141.569 274.558 139.913C274.986 139.096 275.425 138.279 275.809 137.417C276.215 136.561 276.563 135.675 277.03 134.766C277.16 135.769 277.111 136.786 276.885 137.772C276.677 138.767 276.321 139.726 275.829 140.615C275.338 141.51 274.712 142.322 273.971 143.024C273.251 143.748 272.373 144.296 271.407 144.627Z" fill="#5E7C24"/>
<path d="M230.478 59.4081C230.478 59.4081 232.474 54.6504 258.597 92.1734L248.671 105.057C248.671 105.057 234.26 93.1964 227.732 82.9575" fill="#FFBA55"/>
<path d="M313.662 96.8369L336.702 85.8462L337.884 111.03L315.73 103.859L313.662 96.8369Z" fill="#8E6CD8"/>
<path d="M179.258 267.037C198.066 267.037 213.313 251.747 213.313 232.886C213.313 214.024 198.066 198.734 179.258 198.734C160.45 198.734 145.203 214.024 145.203 232.886C145.203 251.747 160.45 267.037 179.258 267.037Z" fill="#1E1D22"/>
<path d="M179.258 250.61C189.019 250.61 196.932 242.674 196.932 232.886C196.932 223.097 189.019 215.162 179.258 215.162C169.497 215.162 161.583 223.097 161.583 232.886C161.583 242.674 169.497 250.61 179.258 250.61Z" fill="#848384"/>
<path d="M178.586 237.326C181.919 237.326 181.924 232.146 178.586 232.146C175.253 232.146 175.247 237.326 178.586 237.326Z" fill="white"/>
<path d="M364.034 267.037C382.842 267.037 398.089 251.747 398.089 232.886C398.089 214.024 382.842 198.734 364.034 198.734C345.226 198.734 329.979 214.024 329.979 232.886C329.979 251.747 345.226 267.037 364.034 267.037Z" fill="#1E1D22"/>
<path d="M364.034 250.61C373.795 250.61 381.708 242.674 381.708 232.886C381.708 223.097 373.795 215.162 364.034 215.162C354.272 215.162 346.359 223.097 346.359 232.886C346.359 242.674 354.272 250.61 364.034 250.61Z" fill="#848384"/>
<path d="M363.361 239.964C370.089 239.964 370.1 229.508 363.361 229.508C356.634 229.508 356.623 239.964 363.361 239.964Z" fill="#1E1D22"/>
<path d="M407.573 228.995C407.573 228.995 376.535 213.432 321.357 234.183H222.797C222.797 234.183 190.035 254.933 134.857 239.37C134.857 239.37 127.96 227.266 145.203 201.328C145.203 201.328 155.549 171.932 162.446 166.745L257.525 166.794C257.525 166.794 255.306 214.8 289.793 218.259C324.279 221.717 320.831 188.863 320.831 188.863L316.266 116.151C316.187 111.54 315.873 106.936 315.324 102.357C314.697 97.0174 312.885 97.7599 315.041 98.8406C318.489 100.57 352.395 137.348 359.292 189.224C359.292 189.224 398.951 184.036 407.573 228.995Z" fill="#8E6CD8"/>
<path d="M359.292 189.224C354.203 190.545 349.347 192.638 344.891 195.43C342.705 196.802 340.634 198.35 338.699 200.059C336.756 201.741 334.977 203.605 333.387 205.624C331.758 207.617 330.308 209.749 329.053 211.997C328.706 212.541 328.423 213.122 328.123 213.694C327.834 214.272 327.503 214.83 327.248 215.425C326.732 216.613 326.153 217.777 325.698 218.998C323.808 223.922 322.355 229.003 321.357 234.183C321.228 228.786 321.972 223.403 323.56 218.244C325.138 212.991 327.707 208.088 331.127 203.801C336.326 197.379 343.383 192.72 351.331 190.463C353.921 189.711 356.596 189.294 359.292 189.224Z" fill="#6F56A5"/>
<path d="M222.797 234.183C225.857 229.501 228.248 224.414 229.901 219.07C231.511 213.802 232.197 208.176 230.944 202.964C229.621 197.756 226.43 193.216 221.977 190.208C221.704 190.014 221.449 189.796 221.162 189.619L220.301 189.089C219.722 188.741 219.17 188.355 218.572 188.037C217.349 187.44 216.194 186.744 214.899 186.253L213 185.454C212.387 185.199 211.762 184.976 211.126 184.785C209.84 184.385 208.516 184.055 207.183 183.773C201.807 182.648 196.301 182.276 190.823 182.666C188.075 182.848 185.341 183.193 182.634 183.7C179.924 184.211 177.252 184.916 174.597 185.689C163.971 189.171 154.027 194.462 145.203 201.328L148.347 198.508L151.638 195.852L155.045 193.334C156.22 192.55 157.382 191.74 158.574 190.974C163.395 187.95 168.529 185.456 173.886 183.536C179.292 181.638 184.914 180.425 190.621 179.923C196.363 179.443 202.143 179.784 207.789 180.934C209.201 181.243 210.602 181.604 211.995 182.05C212.681 182.271 213.407 182.518 214.081 182.813L216.058 183.665C217.39 184.184 218.653 184.944 219.945 185.595C220.583 185.942 221.185 186.364 221.806 186.745C222.435 187.12 223.036 187.54 223.605 188C228.49 191.457 231.897 196.625 233.149 202.478C233.707 205.352 233.785 208.299 233.379 211.199C232.979 214.046 232.262 216.838 231.241 219.525C230.217 222.176 228.99 224.742 227.569 227.203C226.177 229.659 224.58 231.994 222.797 234.183Z" fill="#6F56A5"/>
<path d="M158.671 168.113H252.763C258.477 168.113 263.109 162.855 263.109 156.37C263.109 149.885 258.477 144.627 252.763 144.627H158.671C152.957 144.627 148.325 149.885 148.325 156.37C148.325 162.855 152.957 168.113 158.671 168.113Z" fill="#6F56A5"/>
<path d="M211.417 196.244C209.85 198.089 208.088 199.758 206.16 201.221C204.245 202.708 202.23 204.062 200.129 205.273C199.101 205.924 198.011 206.452 196.935 207.013C195.866 207.591 194.754 208.069 193.651 208.576C193.101 208.832 192.543 209.069 191.986 209.31L190.287 209.956C189.148 210.369 188.027 210.839 186.873 211.205C182.269 212.7 177.545 213.79 172.752 214.464C170.372 214.858 167.95 214.956 165.558 215.17C163.15 215.245 160.741 215.248 158.342 215.162C160.695 214.604 163.048 214.222 165.382 213.754L168.867 212.999C170.026 212.748 171.194 212.554 172.336 212.236C173.484 211.942 174.631 211.66 175.783 211.403C176.94 211.167 178.06 210.78 179.198 210.475C180.326 210.137 181.486 209.907 182.599 209.522L185.961 208.448C187.09 208.114 188.182 207.678 189.295 207.299L190.955 206.705C191.499 206.482 192.04 206.255 192.59 206.046C194.799 205.233 196.93 204.24 199.077 203.274C200.137 202.764 201.21 202.27 202.249 201.715L203.827 200.908L205.372 200.041C207.459 198.894 209.477 197.627 211.417 196.244Z" fill="#6F56A5"/>
<path d="M215.45 207.65C213.884 209.495 212.121 211.164 210.193 212.627C208.278 214.114 206.263 215.468 204.162 216.679C203.135 217.33 202.045 217.858 200.968 218.419C199.899 218.997 198.787 219.475 197.684 219.982C197.134 220.238 196.576 220.475 196.019 220.716L194.32 221.362C193.182 221.775 192.06 222.245 190.906 222.611C186.303 224.106 181.578 225.196 176.785 225.87C174.405 226.264 171.983 226.362 169.592 226.576C167.183 226.651 164.774 226.654 162.375 226.568C164.728 226.01 167.081 225.628 169.415 225.16L172.9 224.405C174.06 224.154 175.227 223.96 176.37 223.642C177.517 223.348 178.664 223.066 179.816 222.809C180.973 222.573 182.093 222.186 183.231 221.881C184.359 221.543 185.519 221.313 186.632 220.928L189.994 219.854C191.123 219.52 192.215 219.084 193.328 218.705L194.989 218.111C195.532 217.888 196.073 217.661 196.623 217.452C198.832 216.639 200.963 215.646 203.11 214.68C204.17 214.17 205.243 213.676 206.282 213.121L207.86 212.314L209.405 211.447C211.492 210.3 213.511 209.033 215.45 207.65Z" fill="#6F56A5"/>
<path d="M337.763 111.035C339.923 110.934 341.409 105.214 341.082 98.2598C340.756 91.3055 338.741 85.7501 336.581 85.8514C334.422 85.9528 332.936 91.6726 333.262 98.6269C333.589 105.581 335.604 111.137 337.763 111.035Z" fill="#FFBA55"/>
<path d="M336.581 85.8516C336.312 85.9282 336.063 86.0631 335.851 86.2467C335.64 86.4303 335.471 86.6582 335.357 86.9142C335.09 87.4039 334.884 87.9245 334.743 88.4644C334.45 89.5542 334.248 90.6662 334.137 91.7893C333.724 96.318 333.939 100.882 334.776 105.352C334.991 106.46 335.297 107.548 335.69 108.605C335.881 109.13 336.134 109.629 336.446 110.091C336.583 110.335 336.772 110.546 337 110.71C337.227 110.873 337.488 110.984 337.763 111.035C337.459 111.055 337.154 111.005 336.873 110.887C336.592 110.769 336.342 110.587 336.143 110.357C335.715 109.929 335.347 109.445 335.05 108.919C334.47 107.878 334.009 106.775 333.677 105.63C332.379 101.072 332.155 96.2752 333.021 91.6157C333.245 90.4453 333.6 89.304 334.08 88.2134C334.326 87.6611 334.647 87.1451 335.033 86.6795C335.209 86.431 335.441 86.2268 335.71 86.0832C335.978 85.9395 336.277 85.8602 336.581 85.8516Z" fill="#E6952A"/>
<path d="M327.255 112.5C326.179 111.555 325.19 110.563 324.219 109.562L321.339 106.561C320.394 105.556 319.431 104.576 318.438 103.646C317.945 103.182 317.425 102.749 316.879 102.349C316.345 101.923 315.713 101.637 315.041 101.519C315.766 101.343 316.53 101.412 317.211 101.718C317.89 101.991 318.537 102.339 319.138 102.755C320.317 103.573 321.406 104.512 322.388 105.557C323.363 106.587 324.265 107.684 325.086 108.839C325.924 109.987 326.65 111.213 327.255 112.5Z" fill="#6F56A5"/>
<path d="M194.809 141.798H143.033C142.286 141.798 141.57 141.501 141.041 140.973C140.513 140.444 140.216 139.728 140.216 138.981V101.055H197.625V138.981C197.625 139.728 197.329 140.444 196.8 140.973C196.272 141.501 195.556 141.798 194.809 141.798Z" fill="#584432"/>
<path d="M175.504 112.79C175.319 112.506 175.048 112.498 174.739 112.489C174.704 112.488 174.669 112.487 174.633 112.485C174.606 112.484 174.575 112.484 174.544 112.485C174.419 112.487 174.272 112.489 174.199 112.384C174.113 112.262 174.121 112.027 174.128 111.833C174.13 111.771 174.132 111.714 174.131 111.666C174.119 111.214 174.094 110.735 173.919 110.575C173.788 110.455 173.394 110.471 173.032 110.487C172.914 110.492 172.8 110.496 172.698 110.496H164.975C164.819 110.496 164.656 110.484 164.496 110.471C164.184 110.447 163.883 110.424 163.669 110.496C163.358 110.602 163.337 111.159 163.318 111.684L163.316 111.712C163.3 112.145 163.192 112.479 162.836 112.445C162.422 112.407 162.01 112.395 161.823 112.769C161.602 113.212 161.648 113.675 161.729 114.506C161.741 114.624 161.754 114.75 161.766 114.885H175.623C175.631 114.787 175.64 114.69 175.648 114.594C175.713 113.847 175.769 113.196 175.504 112.79Z" fill="#785A3F"/>
<path fill-rule="evenodd" clip-rule="evenodd" d="M162.845 115.709C163.062 118.634 163.276 121.564 163.49 124.493L163.49 124.495C163.606 126.085 163.722 127.676 163.839 129.266H164.281C164.311 129.515 164.346 129.822 164.382 130.146C164.456 130.804 164.537 131.53 164.606 131.977H164.655C165.105 131.812 168.219 130.483 168.22 125.19C168.219 125.175 168.22 125.16 168.221 125.145H167.452C167.415 125.145 167.379 125.132 167.35 125.11C167.32 125.087 167.299 125.056 167.29 125.02C167.215 124.835 167.154 124.645 167.109 124.451C166.656 124.706 166.297 125.096 166.082 125.565C165.878 125.084 165.851 124.549 166.007 124.051C166.162 123.554 166.489 123.126 166.932 122.842C166.937 121.298 167.516 119.809 168.559 118.658L168.575 118.644C168.605 118.617 168.644 118.603 168.684 118.602C168.707 118.603 168.73 118.608 168.752 118.617C168.773 118.627 168.792 118.64 168.808 118.658C169.863 119.811 170.439 121.314 170.421 122.867C170.871 123.143 171.205 123.57 171.361 124.071C171.517 124.571 171.483 125.11 171.267 125.588C171.053 125.118 170.693 124.728 170.24 124.474C170.212 124.662 170.161 124.846 170.088 125.022C170.063 125.097 170.012 125.145 169.961 125.145H169.141C169.142 125.154 169.143 125.163 169.144 125.172L169.144 125.174L169.144 125.179C169.145 125.186 169.145 125.194 169.144 125.202C169.155 130.646 172.466 131.882 172.745 131.977H172.84C172.865 131.548 172.944 130.956 173.021 130.379C173.075 129.982 173.127 129.591 173.16 129.266H173.607C173.75 127.263 173.897 125.266 174.045 123.269L174.045 123.268L174.045 123.267C174.233 120.712 174.421 118.158 174.601 115.591H162.874C162.84 115.598 162.842 115.653 162.845 115.709ZM168.684 118.602L168.683 118.602H168.685L168.684 118.602Z" fill="#785A3F"/>
<path d="M204.576 91.9114V97.0678C204.625 98.0734 204.273 99.0573 203.599 99.8047C202.924 100.552 201.982 101.002 200.977 101.057H136.862C135.858 101.002 134.916 100.551 134.242 99.8039C133.569 99.0564 133.219 98.0727 133.269 97.0678V91.9114C133.22 90.9076 133.571 89.9253 134.244 89.1792C134.918 88.4332 135.859 87.9839 136.862 87.9296H200.977C201.981 87.9836 202.923 88.4325 203.597 89.1785C204.271 89.9245 204.623 90.9069 204.576 91.9114Z" fill="#785A3F"/>
<path d="M196.991 141.823H162.843L155.141 133.724C155.027 133.598 154.886 133.498 154.729 133.432C154.572 133.365 154.402 133.333 154.232 133.338C154.062 133.343 153.894 133.385 153.741 133.461C153.589 133.536 153.454 133.644 153.347 133.776C153.113 134.058 152.99 134.414 152.998 134.78C153.007 135.145 153.147 135.496 153.394 135.766L159.153 141.823H149.966V135.431C149.984 135.254 149.965 135.074 149.909 134.904C149.854 134.734 149.763 134.578 149.643 134.445C149.524 134.313 149.378 134.207 149.214 134.134C149.051 134.061 148.874 134.024 148.696 134.024C148.517 134.024 148.341 134.061 148.177 134.134C148.014 134.207 147.868 134.313 147.748 134.445C147.629 134.578 147.538 134.734 147.483 134.904C147.427 135.074 147.408 135.254 147.426 135.431V141.823H141.154C140.805 141.859 140.483 142.022 140.248 142.282C140.014 142.542 139.884 142.88 139.884 143.23C139.884 143.58 140.014 143.918 140.248 144.178C140.483 144.437 140.805 144.601 141.154 144.637H147.426V151.029C147.408 151.206 147.427 151.386 147.483 151.556C147.538 151.726 147.629 151.882 147.748 152.015C147.868 152.147 148.014 152.253 148.177 152.326C148.341 152.398 148.517 152.436 148.696 152.436C148.874 152.436 149.051 152.398 149.214 152.326C149.378 152.253 149.524 152.147 149.643 152.015C149.763 151.882 149.854 151.726 149.909 151.556C149.965 151.386 149.984 151.206 149.966 151.029V144.637H161.829L168.226 151.364C168.341 151.49 168.482 151.589 168.639 151.656C168.796 151.723 168.965 151.754 169.135 151.749C169.306 151.745 169.473 151.703 169.626 151.627C169.779 151.552 169.913 151.444 170.021 151.312C170.254 151.03 170.378 150.674 170.369 150.308C170.361 149.943 170.22 149.592 169.974 149.322L165.519 144.637H196.991C197.339 144.601 197.662 144.437 197.896 144.178C198.131 143.918 198.261 143.58 198.261 143.23C198.261 142.88 198.131 142.542 197.896 142.282C197.662 142.022 197.339 141.859 196.991 141.823Z" fill="#464646"/>
<path d="M258.303 92.9028L297.61 98.1439C297.61 98.1439 313.664 92.1858 316.934 100.635C317.366 101.802 317.378 103.083 316.969 104.259C315.989 107.198 313.671 113.002 311.973 108.159L310.227 103.18C310.227 103.18 304.202 107.353 298.38 105.284C296.277 104.536 268.127 110.02 252.951 106.318L248.671 105.057L258.303 92.9028Z" fill="#D19E8A"/>
<path d="M230.478 59.408C230.603 59.1936 230.884 59.1934 231.103 59.2154C231.331 59.2583 231.554 59.3226 231.77 59.4073C232.186 59.6066 232.586 59.8395 232.964 60.1036C233.35 60.3551 233.718 60.6328 234.066 60.9348C234.415 61.2333 234.791 61.5066 235.117 61.8281C236.479 63.0616 237.768 64.372 239.019 65.7136C241.516 68.4047 243.816 71.2588 246.123 74.1053C248.413 76.9651 250.625 79.8856 252.79 82.8374C254.991 85.7649 257.054 88.7875 259.189 91.7609L259.496 92.1894L259.168 92.6138L254.194 99.0464L249.191 105.457L248.767 106L248.254 105.563C246.297 103.899 244.406 102.192 242.564 100.42C240.722 98.6504 238.912 96.8487 237.16 94.9907C235.407 93.1337 233.708 91.2235 232.123 89.2199C230.519 87.2343 229.052 85.1419 227.732 82.9573C229.215 85.0218 230.808 87.0049 232.504 88.8981C234.203 90.7838 235.981 92.5959 237.772 94.3916C239.577 96.1752 241.438 97.9012 243.328 99.5927C245.227 101.271 247.138 102.952 249.088 104.55L248.151 104.656L253.074 98.1837L258.025 91.733L258.005 92.5855C255.902 89.6003 253.83 86.5915 251.695 83.6309C249.591 80.6468 247.422 77.7122 245.263 74.7694C243.073 71.853 240.864 68.944 238.504 66.1684C237.34 64.7666 236.138 63.3958 234.861 62.0989C234.555 61.76 234.203 61.4737 233.875 61.1582C233.549 60.8426 233.204 60.5476 232.841 60.2749C232.49 59.9875 232.117 59.7292 231.724 59.5026C231.522 59.4052 231.312 59.3266 231.095 59.2676C230.886 59.2312 230.618 59.2063 230.478 59.408Z" fill="#E6952A"/>
<path d="M148.747 144.155C149.007 144.146 149.253 144.037 149.433 143.85C149.614 143.663 149.715 143.413 149.715 143.153C149.715 142.893 149.614 142.643 149.433 142.456C149.253 142.269 149.007 142.159 148.747 142.15C148.487 142.159 148.241 142.269 148.06 142.456C147.879 142.643 147.778 142.893 147.778 143.153C147.778 143.413 147.879 143.663 148.06 143.85C148.241 144.037 148.487 144.146 148.747 144.155Z" fill="#616161"/>
<path d="M148.747 151.689C149.007 151.68 149.253 151.571 149.433 151.384C149.614 151.197 149.715 150.947 149.715 150.687C149.715 150.427 149.614 150.177 149.433 149.99C149.253 149.803 149.007 149.693 148.747 149.684C148.487 149.693 148.241 149.803 148.06 149.99C147.879 150.177 147.778 150.427 147.778 150.687C147.778 150.947 147.879 151.197 148.06 151.384C148.241 151.571 148.487 151.68 148.747 151.689Z" fill="#616161"/>
<path d="M154.46 135.956C154.72 135.947 154.966 135.838 155.147 135.65C155.327 135.463 155.428 135.214 155.428 134.954C155.428 134.693 155.327 134.444 155.147 134.257C154.966 134.07 154.72 133.96 154.46 133.951C154.2 133.96 153.954 134.07 153.773 134.257C153.593 134.444 153.492 134.693 153.492 134.954C153.492 135.214 153.593 135.463 153.773 135.65C153.954 135.838 154.2 135.947 154.46 135.956Z" fill="#616161"/>
<path d="M148.747 136.642C149.006 136.633 149.253 136.523 149.433 136.336C149.614 136.149 149.715 135.899 149.715 135.639C149.715 135.379 149.614 135.13 149.433 134.943C149.253 134.756 149.006 134.646 148.747 134.637C148.487 134.646 148.241 134.756 148.06 134.943C147.879 135.13 147.778 135.379 147.778 135.639C147.778 135.899 147.879 136.149 148.06 136.336C148.241 136.523 148.487 136.633 148.747 136.642Z" fill="#616161"/>
<path d="M161.774 144.155C162.034 144.146 162.28 144.037 162.461 143.85C162.641 143.663 162.742 143.413 162.742 143.153C162.742 142.893 162.641 142.643 162.461 142.456C162.28 142.269 162.034 142.159 161.774 142.15C161.514 142.159 161.268 142.269 161.087 142.456C160.907 142.643 160.806 142.893 160.806 143.153C160.806 143.413 160.907 143.663 161.087 143.85C161.268 144.037 161.514 144.146 161.774 144.155Z" fill="#616161"/>
<path d="M168.921 143.889C169.181 143.88 169.427 143.77 169.608 143.583C169.788 143.396 169.889 143.147 169.889 142.887C169.889 142.626 169.788 142.377 169.608 142.19C169.427 142.003 169.181 141.893 168.921 141.884C168.661 141.893 168.415 142.003 168.234 142.19C168.054 142.377 167.953 142.626 167.953 142.887C167.953 143.147 168.054 143.396 168.234 143.583C168.415 143.77 168.661 143.88 168.921 143.889Z" fill="#616161"/>
<path d="M168.921 151.225C169.181 151.216 169.427 151.107 169.608 150.92C169.788 150.733 169.889 150.483 169.889 150.223C169.889 149.963 169.788 149.713 169.608 149.526C169.427 149.339 169.181 149.229 168.921 149.22C168.661 149.229 168.415 149.339 168.234 149.526C168.054 149.713 167.953 149.963 167.953 150.223C167.953 150.483 168.054 150.733 168.234 150.92C168.415 151.107 168.661 151.216 168.921 151.225Z" fill="#616161"/>
<path d="M141.814 144.155C142.074 144.146 142.32 144.037 142.501 143.85C142.681 143.663 142.782 143.413 142.782 143.153C142.782 142.893 142.681 142.643 142.501 142.456C142.32 142.269 142.074 142.159 141.814 142.15C141.554 142.159 141.308 142.269 141.127 142.456C140.947 142.643 140.846 142.893 140.846 143.153C140.846 143.413 140.947 143.663 141.127 143.85C141.308 144.037 141.554 144.146 141.814 144.155Z" fill="#616161"/>
<path d="M195.904 144.155C196.164 144.146 196.41 144.037 196.591 143.85C196.771 143.663 196.872 143.413 196.872 143.153C196.872 142.893 196.771 142.643 196.591 142.456C196.41 142.269 196.164 142.159 195.904 142.15C195.644 142.159 195.398 142.269 195.217 142.456C195.037 142.643 194.936 142.893 194.936 143.153C194.936 143.413 195.037 143.663 195.217 143.85C195.398 144.037 195.644 144.146 195.904 144.155Z" fill="#616161"/>
</svg>